<?xml version="1.0" encoding="UTF-8" standalone="no"?>
<svg width="157px" height="112px" viewBox="0 0 157 112" version="1.1" xmlns="http://www.w3.org/2000/svg" xmlns:xlink="http://www.w3.org/1999/xlink" xmlns:sketch="http://www.bohemiancoding.com/sketch/ns">
    <!-- Generator: Sketch 3.4 (15575) - http://www.bohemiancoding.com/sketch -->
    <title>noun_60441_cc</title>
    <desc>Created with Sketch.</desc>
    <defs></defs>
    <g id="Page-1" stroke="none" stroke-width="1" fill="none" fill-rule="evenodd" sketch:type="MSPage">
        <g id="Artboard-1" sketch:type="MSArtboardGroup" transform="translate(-602.000000, -1906.000000)" fill="#50E3C2">
            <g id="Section3" sketch:type="MSLayerGroup" transform="translate(-4.000000, 1181.000000)">
                <g id="DESIGN-+-I-keep-my-design-sam-+-noun_192347_cc-+-Oval-6-Copy" transform="translate(157.000000, 690.000000)" sketch:type="MSShapeGroup">
                    <g id="noun_60441_cc" transform="translate(449.000000, 35.000000)">
                        <g id="Group">
                            <g id="Shape">
                                <path d="M153.511111,0 L3.48888889,0 C1.56302222,0 0,1.568 0,3.5 L0,10.5 L0,75.25 L0,85.75 C0,87.682 1.56302222,89.25 3.48888889,89.25 L54.95,89.25 L54.95,108.5 L41.8666667,108.5 C40.9019889,108.5 40.1222222,109.28225 40.1222222,110.25 C40.1222222,111.21775 40.9019889,112 41.8666667,112 L56.6944444,112 L100.305556,112 L115.133333,112 C116.098011,112 116.877778,111.21775 116.877778,110.25 C116.877778,109.28225 116.098011,108.5 115.133333,108.5 L102.05,108.5 L102.05,89.25 L153.511111,89.25 C155.436978,89.25 157,87.682 157,85.75 L157,75.25 L157,10.5 L157,3.5 C157,1.568 155.436978,0 153.511111,0 L153.511111,0 Z M3.48888889,3.5 L153.511111,3.5 L153.511111,7 L3.48888889,7 L3.48888889,3.5 L3.48888889,3.5 Z M3.48888889,10.5 L153.511111,10.5 L153.511111,75.25 L3.48888889,75.25 L3.48888889,10.5 L3.48888889,10.5 Z M58.4388889,108.5 L58.4388889,89.25 L98.5611111,89.25 L98.5611111,108.5 L58.4388889,108.5 L58.4388889,108.5 Z M153.511111,85.75 L100.305556,85.75 L56.6944444,85.75 L3.48888889,85.75 L3.48888889,78.75 L153.511111,78.75 L153.511111,85.75 L153.511111,85.75 Z"></path>
                                <path d="M60.3131694,31.5131875 C59.6310917,30.8289375 58.5286028,30.8289375 57.846525,31.5131875 L45.5115583,43.8874375 C44.8294806,44.5716875 44.8294806,45.6776875 45.5115583,46.3619375 L57.846525,58.7361875 C58.1866917,59.0774375 58.6332694,59.2489375 59.0798472,59.2489375 C59.526425,59.2489375 59.9730028,59.0774375 60.3131694,58.7361875 C60.9952472,58.0519375 60.9952472,56.9459375 60.3131694,56.2616875 L49.211525,45.1246875 L60.3131694,33.9876875 C60.9952472,33.3034375 60.9952472,32.1956875 60.3131694,31.5131875 L60.3131694,31.5131875 Z"></path>
                                <path d="M98.9782028,31.5131875 C98.296125,30.8289375 97.1936361,30.8289375 96.5115583,31.5131875 C95.8294806,32.1974375 95.8294806,33.3034375 96.5115583,33.9876875 L107.613203,45.1246875 L96.5115583,56.2616875 C95.8294806,56.9459375 95.8294806,58.0519375 96.5115583,58.7361875 C96.851725,59.0774375 97.2983028,59.2489375 97.7448806,59.2489375 C98.1914583,59.2489375 98.6380361,59.0774375 98.9782028,58.7361875 L111.313169,46.3619375 C111.995247,45.6776875 111.995247,44.5716875 111.313169,43.8874375 L98.9782028,31.5131875 L98.9782028,31.5131875 Z"></path>
                                <path d="M97.1222222,44 L58.7444444,44 C57.7797667,44 57,44.78225 57,45.75 C57,46.71775 57.7797667,47.5 58.7444444,47.5 L97.1222222,47.5 C98.0869,47.5 98.8666667,46.71775 98.8666667,45.75 C98.8666667,44.78225 98.0869,44 97.1222222,44 L97.1222222,44 Z" transform="translate(77.933333, 45.750000) rotate(127.000000) translate(-77.933333, -45.750000) "></path>
                            </g>
                        </g>
                    </g>
                </g>
            </g>
        </g>
    </g>
</svg>