<?xml version="1.0" encoding="UTF-8" standalone="no"?>
<svg width="132px" height="98px" viewBox="0 0 132 98" version="1.1" xmlns="http://www.w3.org/2000/svg" xmlns:xlink="http://www.w3.org/1999/xlink" xmlns:sketch="http://www.bohemiancoding.com/sketch/ns">
    <!-- Generator: Sketch 3.4 (15575) - http://www.bohemiancoding.com/sketch -->
    <title>noun_117857_cc</title>
    <desc>Created with Sketch.</desc>
    <defs></defs>
    <g id="Page-1" stroke="none" stroke-width="1" fill="none" fill-rule="evenodd" sketch:type="MSPage">
        <g id="Artboard-1" sketch:type="MSArtboardGroup" transform="translate(-181.000000, -2123.000000)" fill="#50E3C2">
            <g id="Section3" sketch:type="MSLayerGroup" transform="translate(-4.000000, 1181.000000)">
                <g id="DESIGN-+-I-keep-my-design-sam-+-noun_192347_cc-+-Oval-6-Copy-2" transform="translate(185.000000, 915.000000)" sketch:type="MSShapeGroup">
                    <g id="noun_117857_cc" transform="translate(0.000000, 27.000000)">
                        <g id="Group">
                            <path d="M127.285714,23.3333333 L94.2857143,23.3333333 L94.2857143,14 C94.2857143,6.28023293 87.9413973,0 80.1428571,0 L51.8571429,0 C44.0588902,0 37.7142857,6.28023293 37.7142857,14 L37.7142857,23.3333333 L4.71428571,23.3333333 C2.11083981,23.3333333 0,25.4225669 0,28 L0,46.6666667 C0,49.2438151 2.11083981,51.3333333 4.71428571,51.3333333 L4.71428571,93.3333333 C4.71428571,95.9104818 6.82512553,98 9.42857143,98 L122.571429,98 C125.175162,98 127.285714,95.9104818 127.285714,93.3333333 L127.285714,51.3333333 C129.889448,51.3333333 132,49.2438151 132,46.6666667 L132,28 C132,25.4225669 129.889448,23.3333333 127.285714,23.3333333 L127.285714,23.3333333 Z M42.4285714,14 C42.4285714,8.8454184 46.6499635,4.66666667 51.8571429,4.66666667 L80.1428571,4.66666667 C85.3500365,4.66666667 89.5714286,8.8454184 89.5714286,14 L89.5714286,23.3333333 L84.8571429,23.3333333 L84.8571429,14 C84.8571429,11.4225669 82.7465906,9.33333333 80.1428571,9.33333333 L51.8571429,9.33333333 C49.2534094,9.33333333 47.1428571,11.4225669 47.1428571,14 L47.1428571,23.3333333 L42.4285714,23.3333333 L42.4285714,14 L42.4285714,14 Z M80.1428571,14 L80.1428571,23.3333333 L51.8571429,23.3333333 L51.8571429,14 L80.1428571,14 L80.1428571,14 Z M122.571429,93.3333333 L9.42857143,93.3333333 L9.42857143,51.3333333 L56.5714286,51.3333333 L56.5714286,58.3333333 C56.5714286,63.4796549 60.8011649,67.6666667 66,67.6666667 C71.1988351,67.6666667 75.4285714,63.4796549 75.4285714,58.3333333 L75.4285714,51.3333333 L122.571429,51.3333333 L122.571429,93.3333333 L122.571429,93.3333333 Z M70.7142857,56 L70.7142857,58.3333333 C70.7142857,60.9107665 68.6037335,63 66,63 C63.3965541,63 61.2857143,60.9107665 61.2857143,58.3333333 L61.2857143,56 L70.7142857,56 L70.7142857,56 Z M61.2857143,51.3333333 L61.2857143,42 L70.7142857,42 L70.7142857,51.3333333 L61.2857143,51.3333333 L61.2857143,51.3333333 Z M127.285714,46.6666667 L75.4285714,46.6666667 L75.4285714,42 C75.4285714,39.4225669 73.3180192,37.3333333 70.7142857,37.3333333 L61.2857143,37.3333333 C58.6822684,37.3333333 56.5714286,39.4225669 56.5714286,42 L56.5714286,46.6666667 L4.71428571,46.6666667 L4.71428571,28 L127.285714,28 L127.285714,46.6666667 L127.285714,46.6666667 Z" id="Shape"></path>
                        </g>
                    </g>
                </g>
            </g>
        </g>
    </g>
</svg>