<?xml version="1.0" encoding="UTF-8" standalone="no"?>
<svg width="180px" height="100px" viewBox="0 0 180 100" version="1.1" xmlns="http://www.w3.org/2000/svg" xmlns:xlink="http://www.w3.org/1999/xlink" xmlns:sketch="http://www.bohemiancoding.com/sketch/ns">
    <!-- Generator: Sketch 3.4 (15575) - http://www.bohemiancoding.com/sketch -->
    <title>noun_111801_cc</title>
    <desc>Created with Sketch.</desc>
    <defs></defs>
    <g id="Page-1" stroke="none" stroke-width="1" fill="none" fill-rule="evenodd" sketch:type="MSPage">
        <g id="Artboard-1" sketch:type="MSArtboardGroup" transform="translate(-152.000000, -1673.000000)" fill="#50E3C2">
            <g id="Section3" sketch:type="MSLayerGroup" transform="translate(-4.000000, 1181.000000)">
                <g id="DESIGN-+-I-keep-my-design-sam-+-noun_192347_cc-+-Oval-6" transform="translate(156.000000, 442.000000)" sketch:type="MSShapeGroup">
                    <g id="noun_111801_cc" transform="translate(0.000000, 50.000000)">
                        <g id="Group">
                            <path d="M134.151727,94.0816327 C134.151727,92.4489796 135.333681,91.2244898 136.909619,91.2244898 C138.485557,91.2244898 139.66751,92.4489796 139.66751,94.0816327 C139.66751,95.7142857 138.485557,96.9387755 136.909619,96.9387755 C135.333681,96.9387755 134.151727,95.7142857 134.151727,94.0816327 L134.151727,94.0816327 Z M166.261465,20 L166.261465,37.9591837 L162.124628,37.9591837 L162.124628,22.0408163 L109.527695,22.0408163 L109.527695,89.3877551 L147.153216,89.3877551 L147.153216,96.122449 C147.153216,97.3469388 147.547201,98.1632653 148.33517,98.9795918 L107.754765,98.9795918 C106.375819,98.9795918 105.193865,97.755102 105.193865,96.122449 L105.193865,20 C105.193865,18.3673469 106.375819,17.1428571 107.754765,17.1428571 L163.700566,17.1428571 C165.276504,17.1428571 166.261465,18.3673469 166.261465,20 L166.261465,20 Z M133.757743,94.0816327 C133.757743,95.9183673 135.136689,97.3469388 136.909619,97.3469388 C138.682549,97.3469388 140.061495,95.9183673 140.061495,94.0816327 C140.061495,92.244898 138.682549,90.8163265 136.909619,90.8163265 C135.136689,90.8163265 133.757743,92.244898 133.757743,94.0816327 L133.757743,94.0816327 Z M136.318642,20 C136.318642,19.5918367 136.12165,19.3877551 135.727665,19.3877551 C135.333681,19.3877551 135.136689,19.5918367 135.136689,20 C135.136689,20.4081633 135.333681,20.6122449 135.727665,20.6122449 C136.12165,20.6122449 136.318642,20.2040816 136.318642,20 L136.318642,20 Z M89.0405003,34.8979592 L82.1457713,47.3469388 L78.0089339,40 L69.1442823,55.7142857 L77.4179571,55.7142857 L86.8735855,55.7142857 L100.860036,55.7142857 L89.0405003,34.8979592 L89.0405003,34.8979592 Z M138.288565,49.5918367 L133.954735,57.1428571 L131.393836,52.6530612 L126.075045,62.4489796 L130.999851,62.4489796 L136.712627,62.4489796 L145.183294,62.4489796 L138.288565,49.5918367 L138.288565,49.5918367 Z M165.867481,62.0408163 L162.912597,67.3469388 L161.139666,64.2857143 L157.396814,71.0204082 L160.942674,71.0204082 L164.882519,71.0204082 L170.792287,71.0204082 L165.867481,62.0408163 L165.867481,62.0408163 Z M163.503574,91.0204082 C161.927635,91.0204082 160.745682,92.244898 160.745682,93.877551 C160.745682,95.5102041 161.927635,96.7346939 163.503574,96.7346939 C165.079512,96.7346939 166.261465,95.5102041 166.261465,93.877551 C166.261465,92.244898 164.882519,91.0204082 163.503574,91.0204082 L163.503574,91.0204082 Z M179.262954,41.2244898 L179.262954,96.5306122 C179.262954,97.9591837 177.884008,99.1836735 176.30807,99.1836735 L150.502085,99.1836735 C148.926147,99.1836735 147.547201,97.9591837 147.547201,96.5306122 L147.547201,41.2244898 C147.547201,39.7959184 148.926147,38.5714286 150.502085,38.5714286 L176.30807,38.5714286 C177.884008,38.5714286 179.262954,39.7959184 179.262954,41.2244898 L179.262954,41.2244898 Z M161.927635,42.4489796 C161.927635,42.6530612 162.124628,42.8571429 162.32162,42.8571429 L166.064473,42.8571429 C166.261465,42.8571429 166.458457,42.6530612 166.458457,42.4489796 C166.458457,42.244898 166.261465,42.0408163 166.064473,42.0408163 L162.32162,42.0408163 C161.927635,42.0408163 161.927635,42.244898 161.927635,42.4489796 L161.927635,42.4489796 Z M159.563728,42.4489796 C159.563728,42.6530612 159.760721,42.8571429 159.957713,42.8571429 C160.154705,42.8571429 160.351697,42.6530612 160.351697,42.4489796 C160.351697,42.244898 160.154705,42.0408163 159.957713,42.0408163 C159.760721,42.0408163 159.563728,42.244898 159.563728,42.4489796 L159.563728,42.4489796 Z M166.65545,93.877551 C166.65545,92.0408163 165.276504,90.6122449 163.503574,90.6122449 C161.730643,90.6122449 160.351697,92.0408163 160.351697,93.877551 C160.351697,95.7142857 161.730643,97.1428571 163.503574,97.1428571 C165.276504,97.1428571 166.65545,95.7142857 166.65545,93.877551 L166.65545,93.877551 Z M177.687016,46.122449 L149.320131,46.122449 L149.320131,88.9795918 L177.687016,88.9795918 L177.687016,46.122449 L177.687016,46.122449 Z M104.602889,97.1428571 L104.602889,96.7346939 L104.602889,91.2244898 L96.5262061,91.2244898 L96.5262061,91.8367347 C96.5262061,92.6530612 95.738237,93.4693878 94.5562835,93.4693878 L74.266081,93.4693878 C73.0841275,93.4693878 72.2961584,92.8571429 72.2961584,91.8367347 L72.2961584,91.2244898 L0.787969029,91.2244898 L0.787969029,94.6938776 C0.787969029,97.1428571 3.34886837,99.1836735 6.30375223,99.1836735 L104.405896,99.1836735 L105.58785,99.1836735 C105.58785,99.1836735 104.602889,98.3673469 104.602889,97.1428571 L104.602889,97.1428571 Z M154.638922,5.91836735 L154.638922,17.9591837 L148.729154,17.9591837 L148.729154,6.12244898 L19.896218,6.12244898 L19.896218,84.4897959 L104.602889,84.4897959 L104.602889,90.2040816 L13.9864503,90.2040816 L13.9864503,6.12244898 C13.9864503,3.06122449 16.5473496,0.612244898 19.5022335,0.612244898 L149.123139,0.612244898 C152.275015,0.612244898 154.638922,3.06122449 154.638922,5.91836735 L154.638922,5.91836735 Z M84.9036629,3.26530612 C84.9036629,2.85714286 84.7066706,2.65306122 84.3126861,2.65306122 C83.9187016,2.65306122 83.7217094,2.85714286 83.7217094,3.26530612 C83.7217094,3.67346939 83.9187016,3.87755102 84.3126861,3.87755102 C84.7066706,3.87755102 84.9036629,3.67346939 84.9036629,3.26530612 L84.9036629,3.26530612 Z" id="Shape"></path>
                        </g>
                    </g>
                </g>
            </g>
        </g>
    </g>
</svg>